# xmcd CD database file
#
# Track frame offsets:
#	150
#	15713
#	31749
#	48914
#	68644
#	86079
#	100094
#	118710
#	134606
#	149704
#	165382
#	182886
#	196907
#	212378
#	228629
#
# Disc length: 3249 seconds
#
# Revision: 2
# Processed by: cddbd v1.4PL0 Copyright (c) Steve Scherf et al.
# Submitted via: CDex 1.40Beta8
#
DISCID=ce0caf0f
DTITLE=Swing and Simpatia - Swing and Simpatia
DYEAR=2002
DGENRE=Samba
TTITLE0=Eu e Você
TTITLE1=Namorada Nota Dez
TTITLE2=Advinha Quem É?
TTITLE3=Preciso Desabafar
TTITLE4=Namorar Contigo
TTITLE5=Toda Noite
TTITLE6=Transito do Amor
TTITLE7=Agora é a Vera
TTITLE8=Apague Essa História
TTITLE9=Brincar de Amar
TTITLE10=Felina
TTITLE11=festa sem Stress
TTITLE12=Estou Apaixonado
TTITLE13=Você Quem Quis Assim
TTITLE14=Toda Noite (Ao Vivo)
EXTD=YEAR: 2002 ID3G: 114
EXTT0=
EXTT1=
EXTT2=
EXTT3=
EXTT4=
EXTT5=
EXTT6=
EXTT7=
EXTT8=
EXTT9=
EXTT10=
EXTT11=
EXTT12=
EXTT13=
EXTT14=
PLAYORDER=
